<?xml version="1.0" standalone="no"?>
<!DOCTYPE svg PUBLIC "-//W3C//DTD SVG 20010904//EN"
 "http://www.w3.org/TR/2001/REC-SVG-20010904/DTD/svg10.dtd">
<svg version="1.0" xmlns="http://www.w3.org/2000/svg"
 width="70.000000pt" height="70.000000pt" viewBox="0 0 70.000000 70.000000"
 preserveAspectRatio="xMidYMid meet">
<metadata>
Created by potrace 1.11, written by Peter Selinger 2001-2013
</metadata>
<g transform="translate(0.000000,70.000000) scale(0.100000,-0.100000)"
fill="#000000" stroke="none">
<path d="M54 689 c-50 -25 -54 -47 -54 -338 0 -173 4 -279 11 -294 24 -54 44
-57 338 -57 173 0 279 4 294 11 54 24 57 44 57 338 0 173 -4 279 -11 294 -24
54 -44 57 -341 56 -162 0 -281 -4 -294 -10z m445 -318 c72 -125 131 -231 131
-235 0 -3 -121 -6 -270 -6 -148 0 -270 3 -270 7 0 12 263 463 270 463 4 0 66
-103 139 -229z"/>
<path d="M238 358 l-117 -203 119 -3 c66 -1 174 -1 240 0 l119 3 -117 203
c-64 111 -119 202 -122 202 -3 0 -58 -91 -122 -202z m201 8 c21 -21 26 -36 26
-76 0 -41 -5 -54 -28 -77 -23 -23 -36 -28 -77 -28 -41 0 -54 5 -77 28 -23 22
-28 36 -28 76 0 51 20 84 60 102 35 15 96 3 124 -25z"/>
<path d="M299 351 c-39 -40 -39 -82 0 -122 20 -20 39 -29 61 -29 43 0 90 47
90 90 0 43 -47 90 -90 90 -22 0 -41 -9 -61 -29z m11 -63 c-1 -26 -3 -30 -10
-16 -6 9 -7 23 -4 32 9 25 14 19 14 -16z m107 -15 c-3 -10 -5 -2 -5 17 0 19 2
27 5 18 2 -10 2 -26 0 -35z"/>
</g>
</svg>
