<?xml version="1.0" encoding="UTF-8" standalone="no"?>
<svg
   xmlns:dc="http://purl.org/dc/elements/1.1/"
   xmlns:cc="http://creativecommons.org/ns#"
   xmlns:rdf="http://www.w3.org/1999/02/22-rdf-syntax-ns#"
   xmlns:svg="http://www.w3.org/2000/svg"
   xmlns="http://www.w3.org/2000/svg"
   xmlns:xlink="http://www.w3.org/1999/xlink"
   xmlns:sodipodi="http://sodipodi.sourceforge.net/DTD/sodipodi-0.dtd"
   xmlns:inkscape="http://www.inkscape.org/namespaces/inkscape"
   width="368"
   height="149.69704"
   viewBox="0 0 368 149.69703"
   version="1.1"
   id="svg3725"
   sodipodi:docname="bg-counter.svg"
   inkscape:version="0.92.1 r15371">
  <metadata
     id="metadata3729">
    <rdf:RDF>
      <cc:Work
         rdf:about="">
        <dc:format>image/svg+xml</dc:format>
        <dc:type
           rdf:resource="http://purl.org/dc/dcmitype/StillImage" />
        <dc:title>Group</dc:title>
      </cc:Work>
    </rdf:RDF>
  </metadata>
  <sodipodi:namedview
     pagecolor="#ffffff"
     bordercolor="#666666"
     borderopacity="1"
     objecttolerance="10"
     gridtolerance="10"
     guidetolerance="10"
     inkscape:pageopacity="0"
     inkscape:pageshadow="2"
     inkscape:window-width="1920"
     inkscape:window-height="1027"
     id="namedview3727"
     showgrid="false"
     inkscape:zoom="4.0810811"
     inkscape:cx="183.755"
     inkscape:cy="68.438902"
     inkscape:window-x="-8"
     inkscape:window-y="-8"
     inkscape:window-maximized="1"
     inkscape:current-layer="svg3725"
     showguides="false" />
  <title
     id="title3680">Group</title>
  <desc
     id="desc3682">Created using Figma</desc>
  <g
     id="Canvas"
     transform="matrix(1,0,0,1.1598381,10275,-517.0085)">
    <g
       id="Group">
      <g
         id="Rectangle 2"
         style="filter:url(#filter0_f)"
         transform="matrix(0.99211475,0,0,2.2252962,-79.570053,-551.1735)">
        <mask
           id="mask0_outline_ins">
          <use
             xlink:href="#path0_fill"
             transform="translate(-10272,452)"
             id="use3684"
             style="fill:#ffffff"
             x="0"
             y="0"
             width="100%"
             height="100%" />
        </mask>
        <g
           mask="url(#mask0_outline_ins)"
           id="g3689">
          <use
             xlink:href="#path1_stroke_2x"
             transform="translate(-10272,452)"
             id="use3687"
             style="fill:#23a2f8"
             x="0"
             y="0"
             width="100%"
             height="100%" />
        </g>
      </g>
      <g
         id="g3699"
         transform="matrix(1,0,0,2.2675751,0,-571.67639)">
        <mask
           id="mask1_outline_ins">
          <use
             xlink:href="#path0_fill"
             transform="translate(-10272,452)"
             id="use3692"
             style="fill:#ffffff"
             x="0"
             y="0"
             width="100%"
             height="100%" />
        </mask>
        <g
           mask="url(#mask1_outline_ins)"
           id="g3697">
          <use
             xlink:href="#path2_stroke_2x"
             transform="translate(-10272,452)"
             id="use3695"
             style="fill:#23a2f8"
             x="0"
             y="0"
             width="100%"
             height="100%" />
        </g>
      </g>
      <g
         id="g3708"
         transform="matrix(1,0,0,2.2574776,0,-566.60743)">
        <mask
           id="mask2_outline_ins">
          <use
             xlink:href="#path0_fill"
             transform="translate(-10272,452)"
             id="use3701"
             style="fill:#ffffff"
             x="0"
             y="0"
             width="100%"
             height="100%" />
        </mask>
        <g
           mask="url(#mask2_outline_ins)"
           id="g3706">
          <use
             xlink:href="#path3_stroke_2x"
             transform="translate(-10272,452)"
             id="use3704"
             style="fill:#23a2f8"
             x="0"
             y="0"
             width="100%"
             height="100%" />
        </g>
      </g>
    </g>
  </g>
  <defs
     id="defs3723">
    <filter
       id="filter0_f"
       filterUnits="userSpaceOnUse"
       x="-10276"
       y="448"
       width="370"
       height="58"
       style="color-interpolation-filters:sRGB">
      <feFlood
         flood-opacity="0"
         result="BackgroundImageFix"
         id="feFlood3712" />
      <feBlend
         mode="normal"
         in="SourceGraphic"
         in2="BackgroundImageFix"
         result="shape"
         id="feBlend3714" />
      <feGaussianBlur
         stdDeviation="2"
         result="effect1_foregroundBlur"
         id="feGaussianBlur3716" />
    </filter>
    <path
       id="path0_fill"
       d="M 0,0 H 362 V 50 H 0 Z"
       inkscape:connector-curvature="0" />
    <path
       id="path1_stroke_2x"
       d="m 0,0 v -1 h -1 v 1 z m 362,0 h 1 v -1 h -1 z m 0,50 v 1 h 1 V 50 Z M 0,50 h -1 v 1 H 0 Z M 0,1 H 362 V -1 H 0 Z M 361,0 v 50 h 2 V 0 Z m 1,49 H 0 v 2 H 362 Z M 1,50 V 0 h -2 v 50 z"
       inkscape:connector-curvature="0" />
    <path
       id="path2_stroke_2x"
       d="M 0,0 V -0.5 H -0.5 V 0 Z m 362,0 h 0.5 V -0.5 H 362 Z m 0,50 v 0.5 h 0.5 V 50 Z M 0,50 h -0.5 v 0.5 H 0 Z M -0.5,0 v 12.5 h 1 V 0 Z m 0,37.5 V 50 h 1 V 37.5 Z m 0.5,13 h 45.25 v -1 H 0 Z m 135.75,0 h 90.5 v -1 h -90.5 z m 181,0 H 362 v -1 H 316.75 Z M 362.5,50 V 37.5 h -1 V 50 Z m 0,-37.5 V 0 h -1 v 12.5 z m -0.5,-13 h -45.25 v 1 H 362 Z m -135.75,0 h -90.5 v 1 h 90.5 z m -181,0 H 0 v 1 H 45.25 Z M 0,0 v -1 h -1 v 1 z m 362,0 h 1 v -1 h -1 z m 0,50 v 1 h 1 V 50 Z M 0,50 h -1 v 1 H 0 Z M -1,0 V 12.5 H 1 V 0 Z m 0,37.5 V 50 H 1 V 37.5 Z M 0,51 H 45.25 V 49 H 0 Z m 135.75,0 h 90.5 v -2 h -90.5 z m 181,0 H 362 V 49 H 316.75 Z M 363,50 V 37.5 h -2 V 50 Z m 0,-37.5 V 0 h -2 V 12.5 Z M 362,-1 H 316.75 V 1 H 362 Z m -135.75,0 h -90.5 v 2 h 90.5 z m -181,0 H 0 v 2 h 45.25 z"
       inkscape:connector-curvature="0" />
    <path
       id="path3_stroke_2x"
       d="M 0,0 V -1.5 H -1.5 V 0 Z m 362,0 h 1.5 V -1.5 H 362 Z m 0,50 v 1.5 h 1.5 V 50 Z M 0,50 h -1.5 v 1.5 H 0 Z M -1.5,0.609756 V 2.10976 h 3 V 0.609756 Z m 3,48.780444 v -1.5 h -3 v 1.5 z M 2.20732,51.5 h 1.5 v -3 h -1.5 z m 176.58568,-3 h -1.5 v 3 h 1.5 z m 4.414,3 h 1.5 v -3 h -1.5 z m 176.586,-3 h -1.5 v 3 h 1.5 z m 3.707,0.8902 v -1.5 h -3 v 1.5 z m -3,-48.780443 V 2.10976 h 3 V 0.609757 Z M 359.793,-1.5 h -1.5 v 3 h 1.5 z m -176.586,3 h 1.5 v -3 h -1.5 z m -4.414,-3 h -1.5 v 3 h 1.5 z M 2.2073,1.5 h 1.5 v -3 h -1.5 z M -1.5,0 v 0.609756 h 3 V 0 Z m 0,49.3902 V 50 h 3 V 49.3902 Z M 0,51.5 h 2.20732 v -3 H 0 Z m 178.793,0 h 4.414 v -3 h -4.414 z m 181,0 H 362 v -3 h -2.207 z M 363.5,50 v -0.6098 h -3 V 50 Z m 0,-49.390243 V 0 h -3 V 0.609757 Z M 362,-1.5 h -2.207 v 3 H 362 Z m -178.793,0 h -4.414 v 3 h 4.414 z M 2.2073,-1.5 H 0 v 3 H 2.2073 Z M 0,0 v -3 h -3 v 3 z m 362,0 h 3 v -3 h -3 z m 0,50 v 3 h 3 V 50 Z M 0,50 h -3 v 3 H 0 Z M -3,0.609756 V 3.60976 H 3 V 0.609756 Z M 3,49.3902 v -3 h -6 v 3 z M 2.20732,53 h 3 v -6 h -3 z M 178.793,47 h -3 v 6 h 3 z m 4.414,6 h 3 v -6 h -3 z m 176.586,-6 h -3 v 6 h 3 z M 365,49.3902 v -3 h -6 v 3 z M 359,0.609757 V 3.60976 h 6 V 0.609757 Z M 359.793,-3 h -3 v 6 h 3 z M 183.207,3 h 3 v -6 h -3 z m -4.414,-6 h -3 v 6 h 3 z M 2.2073,3 h 3 v -6 h -3 z M -3,0 V 0.609756 H 3 V 0 Z m 0,49.3902 V 50 H 3 V 49.3902 Z M 0,53 H 2.20732 V 47 H 0 Z m 178.793,0 h 4.414 v -6 h -4.414 z m 181,0 H 362 v -6 h -2.207 z M 365,50 v -0.6098 h -6 V 50 Z M 365,0.609757 V 0 h -6 V 0.609757 Z M 362,-3 h -2.207 V 3 H 362 Z m -178.793,0 h -4.414 v 6 h 4.414 z M 2.2073,-3 H 0 v 6 h 2.2073 z"
       inkscape:connector-curvature="0" />
  </defs>
</svg>
