<svg width="325" height="51" viewBox="0 0 325 51" version="1.1" xmlns="http://www.w3.org/2000/svg" xmlns:xlink="http://www.w3.org/1999/xlink">
<title>Rectangle 3.8 (Stroke)</title>
<desc>Created using Figma</desc>
<g id="Canvas" transform="translate(8548 -339)">
<g id="Rectangle 3.8 (Stroke)">
<use xlink:href="#path0_fill" transform="translate(-8548 339)" fill="#219EF8"/>
<use xlink:href="#path1_fill" transform="translate(-8548 339)" fill="#219EF8"/>
<use xlink:href="#path2_fill" transform="translate(-8548 339)" fill="#219EF8"/>
<use xlink:href="#path3_fill" transform="translate(-8548 339)" fill="#219EF8"/>
<use xlink:href="#path4_fill" transform="translate(-8548 339)" fill="#219EF8"/>
<use xlink:href="#path5_fill" transform="translate(-8548 339)" fill="#219EF8"/>
<use xlink:href="#path6_fill" transform="translate(-8548 339)" fill="#219EF8"/>
<use xlink:href="#path7_fill" transform="translate(-8548 339)" fill="#219EF8"/>
<use xlink:href="#path8_fill" transform="translate(-8548 339)" fill="#219EF8"/>
<use xlink:href="#path9_fill" transform="translate(-8548 339)" fill="#219EF8"/>
<use xlink:href="#path10_fill" transform="translate(-8548 339)" fill="#219EF8"/>
<use xlink:href="#path11_fill" transform="translate(-8548 339)" fill="#219EF8"/>
<use xlink:href="#path12_fill" transform="translate(-8548 339)" fill="#219EF8"/>
<use xlink:href="#path13_fill" transform="translate(-8548 339)" fill="#219EF8"/>
</g>
</g>
<defs>
<path id="path0_fill" d="M 1 50L 1 37L 1 29L 1 0L 0 0L 0 51L 325 51L 325 50L 124 50L 1 50Z"/>
<path id="path1_fill" d="M 49.5 50L 60.5 50L 59.5 48.5L 50.5 48.5L 49.5 50Z"/>
<path id="path2_fill" d="M 42.5 50L 46.5 50L 45.5 48.5L 43.5 48.5L 42.5 50Z"/>
<path id="path3_fill" d="M 37 50L 41 50L 40 48.5L 38 48.5L 37 50Z"/>
<path id="path4_fill" d="M 32 50L 36 50L 35 48.5L 33 48.5L 32 50Z"/>
<path id="path5_fill" d="M 2.5 50L 6.5 50L 5.5 48.5L 3.5 48.5L 2.5 50Z"/>
<path id="path6_fill" d="M 93 50L 124 50L 123 48.5L 94 48.5L 93 50Z"/>
<path id="path7_fill" d="M 1 37L 2.5 35.5L 2.5 30.5L 1 29L 1 37Z"/>
<path id="path8_fill" d="M 1 15L 2.5 13.5L 2.5 11.5L 1 10L 1 0L 1 15Z"/>
<path id="path9_fill" d="M 212 50L 223 50L 222 48.5L 213 48.5L 212 50Z"/>
<path id="path10_fill" d="M 205 50L 209 50L 208 48.5L 206 48.5L 205 50Z"/>
<path id="path11_fill" d="M 194.5 50L 198.5 50L 197.5 48.5L 195.5 48.5L 194.5 50Z"/>
<path id="path12_fill" d="M 276.5 50L 280.5 50L 279.5 48.5L 277.5 48.5L 276.5 50Z"/>
<path id="path13_fill" d="M 299.5 50L 322 50L 321 48.5L 300.5 48.5L 299.5 50Z"/>
</defs>
</svg>
