<svg width="370" height="58" viewBox="0 0 370 58" version="1.1" xmlns="http://www.w3.org/2000/svg" xmlns:xlink="http://www.w3.org/1999/xlink">
<title>Group</title>
<desc>Created using Figma</desc>
<g id="Canvas" transform="translate(10276 -448)">
<g id="Group">
<g id="Rectangle 2" filter="url(#filter0_f)">
<mask id="mask0_outline_ins">
<use xlink:href="#path0_fill" fill="white" transform="translate(-10272 452)"/>
</mask>
<g mask="url(#mask0_outline_ins)">
<use xlink:href="#path1_stroke_2x" transform="translate(-10272 452)" fill="#23A2F8"/>
</g>
</g>
<g id="Rectangle 2">
<mask id="mask1_outline_ins">
<use xlink:href="#path0_fill" fill="white" transform="translate(-10272 452)"/>
</mask>
<g mask="url(#mask1_outline_ins)">
<use xlink:href="#path2_stroke_2x" transform="translate(-10272 452)" fill="#23A2F8"/>
</g>
</g>
<g id="Rectangle 2">
<mask id="mask2_outline_ins">
<use xlink:href="#path0_fill" fill="white" transform="translate(-10272 452)"/>
</mask>
<g mask="url(#mask2_outline_ins)">
<use xlink:href="#path3_stroke_2x" transform="translate(-10272 452)" fill="#23A2F8"/>
</g>
</g>
</g>
</g>
<defs>
<filter id="filter0_f" filterUnits="userSpaceOnUse" x="-10276" y="448" width="370" height="58" color-interpolation-filters="sRGB">
<feFlood flood-opacity="0" result="BackgroundImageFix"/>
<feBlend mode="normal" in="SourceGraphic" in2="BackgroundImageFix" result="shape"/>
<feGaussianBlur stdDeviation="2" result="effect1_foregroundBlur"/>
</filter>
<path id="path0_fill" d="M 0 0L 362 0L 362 50L 0 50L 0 0Z"/>
<path id="path1_stroke_2x" d="M 0 0L 0 -1L -1 -1L -1 0L 0 0ZM 362 0L 363 0L 363 -1L 362 -1L 362 0ZM 362 50L 362 51L 363 51L 363 50L 362 50ZM 0 50L -1 50L -1 51L 0 51L 0 50ZM 0 1L 362 1L 362 -1L 0 -1L 0 1ZM 361 0L 361 50L 363 50L 363 0L 361 0ZM 362 49L 0 49L 0 51L 362 51L 362 49ZM 1 50L 1 0L -1 0L -1 50L 1 50Z"/>
<path id="path2_stroke_2x" d="M 0 0L 0 -0.5L -0.5 -0.5L -0.5 0L 0 0ZM 362 0L 362.5 0L 362.5 -0.5L 362 -0.5L 362 0ZM 362 50L 362 50.5L 362.5 50.5L 362.5 50L 362 50ZM 0 50L -0.5 50L -0.5 50.5L 0 50.5L 0 50ZM -0.5 0L -0.5 12.5L 0.5 12.5L 0.5 0L -0.5 0ZM -0.5 37.5L -0.5 50L 0.5 50L 0.5 37.5L -0.5 37.5ZM 0 50.5L 45.25 50.5L 45.25 49.5L 0 49.5L 0 50.5ZM 135.75 50.5L 226.25 50.5L 226.25 49.5L 135.75 49.5L 135.75 50.5ZM 316.75 50.5L 362 50.5L 362 49.5L 316.75 49.5L 316.75 50.5ZM 362.5 50L 362.5 37.5L 361.5 37.5L 361.5 50L 362.5 50ZM 362.5 12.5L 362.5 0L 361.5 0L 361.5 12.5L 362.5 12.5ZM 362 -0.5L 316.75 -0.5L 316.75 0.5L 362 0.5L 362 -0.5ZM 226.25 -0.5L 135.75 -0.5L 135.75 0.5L 226.25 0.5L 226.25 -0.5ZM 45.25 -0.5L 0 -0.5L 0 0.5L 45.25 0.5L 45.25 -0.5ZM 0 0L 0 -1L -1 -1L -1 0L 0 0ZM 362 0L 363 0L 363 -1L 362 -1L 362 0ZM 362 50L 362 51L 363 51L 363 50L 362 50ZM 0 50L -1 50L -1 51L 0 51L 0 50ZM -1 0L -1 12.5L 1 12.5L 1 0L -1 0ZM -1 37.5L -1 50L 1 50L 1 37.5L -1 37.5ZM 0 51L 45.25 51L 45.25 49L 0 49L 0 51ZM 135.75 51L 226.25 51L 226.25 49L 135.75 49L 135.75 51ZM 316.75 51L 362 51L 362 49L 316.75 49L 316.75 51ZM 363 50L 363 37.5L 361 37.5L 361 50L 363 50ZM 363 12.5L 363 0L 361 0L 361 12.5L 363 12.5ZM 362 -1L 316.75 -1L 316.75 1L 362 1L 362 -1ZM 226.25 -1L 135.75 -1L 135.75 1L 226.25 1L 226.25 -1ZM 45.25 -1L 0 -1L 0 1L 45.25 1L 45.25 -1Z"/>
<path id="path3_stroke_2x" d="M 0 0L 0 -1.5L -1.5 -1.5L -1.5 0L 0 0ZM 362 0L 363.5 0L 363.5 -1.5L 362 -1.5L 362 0ZM 362 50L 362 51.5L 363.5 51.5L 363.5 50L 362 50ZM 0 50L -1.5 50L -1.5 51.5L 0 51.5L 0 50ZM -1.5 0.609756L -1.5 2.10976L 1.5 2.10976L 1.5 0.609756L -1.5 0.609756ZM 1.5 49.3902L 1.5 47.8902L -1.5 47.8902L -1.5 49.3902L 1.5 49.3902ZM 2.20732 51.5L 3.70732 51.5L 3.70732 48.5L 2.20732 48.5L 2.20732 51.5ZM 178.793 48.5L 177.293 48.5L 177.293 51.5L 178.793 51.5L 178.793 48.5ZM 183.207 51.5L 184.707 51.5L 184.707 48.5L 183.207 48.5L 183.207 51.5ZM 359.793 48.5L 358.293 48.5L 358.293 51.5L 359.793 51.5L 359.793 48.5ZM 363.5 49.3902L 363.5 47.8902L 360.5 47.8902L 360.5 49.3902L 363.5 49.3902ZM 360.5 0.609757L 360.5 2.10976L 363.5 2.10976L 363.5 0.609757L 360.5 0.609757ZM 359.793 -1.5L 358.293 -1.5L 358.293 1.5L 359.793 1.5L 359.793 -1.5ZM 183.207 1.5L 184.707 1.5L 184.707 -1.5L 183.207 -1.5L 183.207 1.5ZM 178.793 -1.5L 177.293 -1.5L 177.293 1.5L 178.793 1.5L 178.793 -1.5ZM 2.2073 1.5L 3.7073 1.5L 3.7073 -1.5L 2.2073 -1.5L 2.2073 1.5ZM -1.5 0L -1.5 0.609756L 1.5 0.609756L 1.5 0L -1.5 0ZM -1.5 49.3902L -1.5 50L 1.5 50L 1.5 49.3902L -1.5 49.3902ZM 0 51.5L 2.20732 51.5L 2.20732 48.5L 0 48.5L 0 51.5ZM 178.793 51.5L 183.207 51.5L 183.207 48.5L 178.793 48.5L 178.793 51.5ZM 359.793 51.5L 362 51.5L 362 48.5L 359.793 48.5L 359.793 51.5ZM 363.5 50L 363.5 49.3902L 360.5 49.3902L 360.5 50L 363.5 50ZM 363.5 0.609757L 363.5 0L 360.5 0L 360.5 0.609757L 363.5 0.609757ZM 362 -1.5L 359.793 -1.5L 359.793 1.5L 362 1.5L 362 -1.5ZM 183.207 -1.5L 178.793 -1.5L 178.793 1.5L 183.207 1.5L 183.207 -1.5ZM 2.2073 -1.5L 0 -1.5L 0 1.5L 2.2073 1.5L 2.2073 -1.5ZM 0 0L 0 -3L -3 -3L -3 0L 0 0ZM 362 0L 365 0L 365 -3L 362 -3L 362 0ZM 362 50L 362 53L 365 53L 365 50L 362 50ZM 0 50L -3 50L -3 53L 0 53L 0 50ZM -3 0.609756L -3 3.60976L 3 3.60976L 3 0.609756L -3 0.609756ZM 3 49.3902L 3 46.3902L -3 46.3902L -3 49.3902L 3 49.3902ZM 2.20732 53L 5.20732 53L 5.20732 47L 2.20732 47L 2.20732 53ZM 178.793 47L 175.793 47L 175.793 53L 178.793 53L 178.793 47ZM 183.207 53L 186.207 53L 186.207 47L 183.207 47L 183.207 53ZM 359.793 47L 356.793 47L 356.793 53L 359.793 53L 359.793 47ZM 365 49.3902L 365 46.3902L 359 46.3902L 359 49.3902L 365 49.3902ZM 359 0.609757L 359 3.60976L 365 3.60976L 365 0.609757L 359 0.609757ZM 359.793 -3L 356.793 -3L 356.793 3L 359.793 3L 359.793 -3ZM 183.207 3L 186.207 3L 186.207 -3L 183.207 -3L 183.207 3ZM 178.793 -3L 175.793 -3L 175.793 3L 178.793 3L 178.793 -3ZM 2.2073 3L 5.2073 3L 5.2073 -3L 2.2073 -3L 2.2073 3ZM -3 0L -3 0.609756L 3 0.609756L 3 0L -3 0ZM -3 49.3902L -3 50L 3 50L 3 49.3902L -3 49.3902ZM 0 53L 2.20732 53L 2.20732 47L 0 47L 0 53ZM 178.793 53L 183.207 53L 183.207 47L 178.793 47L 178.793 53ZM 359.793 53L 362 53L 362 47L 359.793 47L 359.793 53ZM 365 50L 365 49.3902L 359 49.3902L 359 50L 365 50ZM 365 0.609757L 365 0L 359 0L 359 0.609757L 365 0.609757ZM 362 -3L 359.793 -3L 359.793 3L 362 3L 362 -3ZM 183.207 -3L 178.793 -3L 178.793 3L 183.207 3L 183.207 -3ZM 2.2073 -3L 0 -3L 0 3L 2.2073 3L 2.2073 -3Z"/>
</defs>
</svg>
