<svg width="523" height="444" viewBox="0 0 523 444" version="1.1" xmlns="http://www.w3.org/2000/svg" xmlns:xlink="http://www.w3.org/1999/xlink">
<title>&#208;&#158;&#208;&#191; &#208;&#178;&#208;&#190;&#208;&#180;&#208;&#186;&#208;&#176;</title>
<desc>Created using Figma</desc>
<g id="Canvas" transform="translate(10157 -1816)">
<g id="&#208;&#158;&#208;&#191; &#208;&#178;&#208;&#190;&#208;&#180;&#208;&#186;&#208;&#176;">
<g id="Rectangle 2.2" filter="url(#filter0_f)">
<mask id="mask0_outline_ins">
<use xlink:href="#path0_fill" fill="white" transform="translate(-10153 1820)"/>
</mask>
<g mask="url(#mask0_outline_ins)">
<use xlink:href="#path1_stroke_2x" transform="translate(-10153 1820)" fill="#23A2F8"/>
</g>
</g>
<g id="Rectangle 2.3">
<mask id="mask1_outline_ins">
<use xlink:href="#path0_fill" fill="white" transform="translate(-10153 1820)"/>
</mask>
<g mask="url(#mask1_outline_ins)">
<use xlink:href="#path2_stroke_2x" transform="translate(-10153 1820)" fill="#23A2F8"/>
</g>
</g>
<g id="Rectangle 2.4">
<mask id="mask2_outline_ins">
<use xlink:href="#path0_fill" fill="white" transform="translate(-10153 1820)"/>
</mask>
<g mask="url(#mask2_outline_ins)">
<use xlink:href="#path3_stroke_2x" transform="translate(-10153 1820)" fill="#23A2F8"/>
</g>
</g>
</g>
</g>
<defs>
<filter id="filter0_f" filterUnits="userSpaceOnUse" x="-10157" y="1816" width="523" height="444" color-interpolation-filters="sRGB">
<feFlood flood-opacity="0" result="BackgroundImageFix"/>
<feBlend mode="normal" in="SourceGraphic" in2="BackgroundImageFix" result="shape"/>
<feGaussianBlur stdDeviation="2" result="effect1_foregroundBlur"/>
</filter>
<path id="path0_fill" d="M 0 0L 515 0L 515 436L 0 436L 0 0Z"/>
<path id="path1_stroke_2x" d="M 0 0L 0 -1L -1 -1L -1 0L 0 0ZM 515 0L 516 0L 516 -1L 515 -1L 515 0ZM 515 436L 515 437L 516 437L 516 436L 515 436ZM 0 436L -1 436L -1 437L 0 437L 0 436ZM 0 1L 515 1L 515 -1L 0 -1L 0 1ZM 514 0L 514 436L 516 436L 516 0L 514 0ZM 515 435L 0 435L 0 437L 515 437L 515 435ZM 1 436L 1 0L -1 0L -1 436L 1 436Z"/>
<path id="path2_stroke_2x" d="M 0 0L 0 -0.5L -0.5 -0.5L -0.5 0L 0 0ZM 515 0L 515.5 0L 515.5 -0.5L 515 -0.5L 515 0ZM 515 436L 515 436.5L 515.5 436.5L 515.5 436L 515 436ZM 0 436L -0.5 436L -0.5 436.5L 0 436.5L 0 436ZM -0.5 0L -0.5 54.5L 0.5 54.5L 0.5 0L -0.5 0ZM -0.5 163.5L -0.5 272.5L 0.5 272.5L 0.5 163.5L -0.5 163.5ZM -0.5 381.5L -0.5 436L 0.5 436L 0.5 381.5L -0.5 381.5ZM 0 436.5L 42.9167 436.5L 42.9167 435.5L 0 435.5L 0 436.5ZM 128.75 436.5L 214.583 436.5L 214.583 435.5L 128.75 435.5L 128.75 436.5ZM 300.417 436.5L 386.25 436.5L 386.25 435.5L 300.417 435.5L 300.417 436.5ZM 472.083 436.5L 515 436.5L 515 435.5L 472.083 435.5L 472.083 436.5ZM 515.5 436L 515.5 381.5L 514.5 381.5L 514.5 436L 515.5 436ZM 515.5 272.5L 515.5 163.5L 514.5 163.5L 514.5 272.5L 515.5 272.5ZM 515.5 54.5L 515.5 0L 514.5 0L 514.5 54.5L 515.5 54.5ZM 515 -0.5L 472.083 -0.5L 472.083 0.5L 515 0.5L 515 -0.5ZM 386.25 -0.5L 300.417 -0.5L 300.417 0.5L 386.25 0.5L 386.25 -0.5ZM 214.583 -0.5L 128.75 -0.5L 128.75 0.5L 214.583 0.5L 214.583 -0.5ZM 42.9167 -0.5L 0 -0.5L 0 0.5L 42.9167 0.5L 42.9167 -0.5ZM 0 0L 0 -1L -1 -1L -1 0L 0 0ZM 515 0L 516 0L 516 -1L 515 -1L 515 0ZM 515 436L 515 437L 516 437L 516 436L 515 436ZM 0 436L -1 436L -1 437L 0 437L 0 436ZM -1 0L -1 54.5L 1 54.5L 1 0L -1 0ZM -1 163.5L -1 272.5L 1 272.5L 1 163.5L -1 163.5ZM -1 381.5L -1 436L 1 436L 1 381.5L -1 381.5ZM 0 437L 42.9167 437L 42.9167 435L 0 435L 0 437ZM 128.75 437L 214.583 437L 214.583 435L 128.75 435L 128.75 437ZM 300.417 437L 386.25 437L 386.25 435L 300.417 435L 300.417 437ZM 472.083 437L 515 437L 515 435L 472.083 435L 472.083 437ZM 516 436L 516 381.5L 514 381.5L 514 436L 516 436ZM 516 272.5L 516 163.5L 514 163.5L 514 272.5L 516 272.5ZM 516 54.5L 516 0L 514 0L 514 54.5L 516 54.5ZM 515 -1L 472.083 -1L 472.083 1L 515 1L 515 -1ZM 386.25 -1L 300.417 -1L 300.417 1L 386.25 1L 386.25 -1ZM 214.583 -1L 128.75 -1L 128.75 1L 214.583 1L 214.583 -1ZM 42.9167 -1L 0 -1L 0 1L 42.9167 1L 42.9167 -1Z"/>
<path id="path3_stroke_2x" d="M 0 0L 0 -1.5L -1.5 -1.5L -1.5 0L 0 0ZM 515 0L 516.5 0L 516.5 -1.5L 515 -1.5L 515 0ZM 515 436L 515 437.5L 516.5 437.5L 516.5 436L 515 436ZM 0 436L -1.5 436L -1.5 437.5L 0 437.5L 0 436ZM -1.5 2.65854L -1.5 4.15854L 1.5 4.15854L 1.5 2.65854L -1.5 2.65854ZM 1.5 215.341L 1.5 213.841L -1.5 213.841L -1.5 215.341L 1.5 215.341ZM -1.5 220.659L -1.5 222.159L 1.5 222.159L 1.5 220.659L -1.5 220.659ZM 1.5 433.341L 1.5 431.841L -1.5 431.841L -1.5 433.341L 1.5 433.341ZM 2.0935 437.5L 3.5935 437.5L 3.5935 434.5L 2.0935 434.5L 2.0935 437.5ZM 169.573 434.5L 168.073 434.5L 168.073 437.5L 169.573 437.5L 169.573 434.5ZM 173.76 437.5L 175.26 437.5L 175.26 434.5L 173.76 434.5L 173.76 437.5ZM 341.24 434.5L 339.74 434.5L 339.74 437.5L 341.24 437.5L 341.24 434.5ZM 345.427 437.5L 346.927 437.5L 346.927 434.5L 345.427 434.5L 345.427 437.5ZM 512.906 434.5L 511.406 434.5L 511.406 437.5L 512.906 437.5L 512.906 434.5ZM 516.5 433.341L 516.5 431.841L 513.5 431.841L 513.5 433.341L 516.5 433.341ZM 513.5 220.659L 513.5 222.159L 516.5 222.159L 516.5 220.659L 513.5 220.659ZM 516.5 215.341L 516.5 213.841L 513.5 213.841L 513.5 215.341L 516.5 215.341ZM 513.5 2.65855L 513.5 4.15855L 516.5 4.15855L 516.5 2.65855L 513.5 2.65855ZM 512.906 -1.5L 511.406 -1.5L 511.406 1.5L 512.906 1.5L 512.906 -1.5ZM 345.427 1.5L 346.927 1.5L 346.927 -1.5L 345.427 -1.5L 345.427 1.5ZM 341.24 -1.5L 339.74 -1.5L 339.74 1.5L 341.24 1.5L 341.24 -1.5ZM 173.76 1.5L 175.26 1.5L 175.26 -1.5L 173.76 -1.5L 173.76 1.5ZM 169.573 -1.5L 168.073 -1.5L 168.073 1.5L 169.573 1.5L 169.573 -1.5ZM 2.09349 1.5L 3.59349 1.5L 3.59349 -1.5L 2.09349 -1.5L 2.09349 1.5ZM -1.5 0L -1.5 2.65854L 1.5 2.65854L 1.5 0L -1.5 0ZM -1.5 215.341L -1.5 220.659L 1.5 220.659L 1.5 215.341L -1.5 215.341ZM -1.5 433.341L -1.5 436L 1.5 436L 1.5 433.341L -1.5 433.341ZM 0 437.5L 2.0935 437.5L 2.0935 434.5L 0 434.5L 0 437.5ZM 169.573 437.5L 173.76 437.5L 173.76 434.5L 169.573 434.5L 169.573 437.5ZM 341.24 437.5L 345.427 437.5L 345.427 434.5L 341.24 434.5L 341.24 437.5ZM 512.906 437.5L 515 437.5L 515 434.5L 512.906 434.5L 512.906 437.5ZM 516.5 436L 516.5 433.341L 513.5 433.341L 513.5 436L 516.5 436ZM 516.5 220.659L 516.5 215.341L 513.5 215.341L 513.5 220.659L 516.5 220.659ZM 516.5 2.65855L 516.5 0L 513.5 0L 513.5 2.65855L 516.5 2.65855ZM 515 -1.5L 512.906 -1.5L 512.906 1.5L 515 1.5L 515 -1.5ZM 345.427 -1.5L 341.24 -1.5L 341.24 1.5L 345.427 1.5L 345.427 -1.5ZM 173.76 -1.5L 169.573 -1.5L 169.573 1.5L 173.76 1.5L 173.76 -1.5ZM 2.09349 -1.5L 0 -1.5L 0 1.5L 2.09349 1.5L 2.09349 -1.5ZM 0 0L 0 -3L -3 -3L -3 0L 0 0ZM 515 0L 518 0L 518 -3L 515 -3L 515 0ZM 515 436L 515 439L 518 439L 518 436L 515 436ZM 0 436L -3 436L -3 439L 0 439L 0 436ZM -3 2.65854L -3 5.65854L 3 5.65854L 3 2.65854L -3 2.65854ZM 3 215.341L 3 212.341L -3 212.341L -3 215.341L 3 215.341ZM -3 220.659L -3 223.659L 3 223.659L 3 220.659L -3 220.659ZM 3 433.341L 3 430.341L -3 430.341L -3 433.341L 3 433.341ZM 2.0935 439L 5.0935 439L 5.0935 433L 2.0935 433L 2.0935 439ZM 169.573 433L 166.573 433L 166.573 439L 169.573 439L 169.573 433ZM 173.76 439L 176.76 439L 176.76 433L 173.76 433L 173.76 439ZM 341.24 433L 338.24 433L 338.24 439L 341.24 439L 341.24 433ZM 345.427 439L 348.427 439L 348.427 433L 345.427 433L 345.427 439ZM 512.906 433L 509.906 433L 509.906 439L 512.906 439L 512.906 433ZM 518 433.341L 518 430.341L 512 430.341L 512 433.341L 518 433.341ZM 512 220.659L 512 223.659L 518 223.659L 518 220.659L 512 220.659ZM 518 215.341L 518 212.341L 512 212.341L 512 215.341L 518 215.341ZM 512 2.65855L 512 5.65855L 518 5.65855L 518 2.65855L 512 2.65855ZM 512.906 -3L 509.906 -3L 509.906 3L 512.906 3L 512.906 -3ZM 345.427 3L 348.427 3L 348.427 -3L 345.427 -3L 345.427 3ZM 341.24 -3L 338.24 -3L 338.24 3L 341.24 3L 341.24 -3ZM 173.76 3L 176.76 3L 176.76 -3L 173.76 -3L 173.76 3ZM 169.573 -3L 166.573 -3L 166.573 3L 169.573 3L 169.573 -3ZM 2.09349 3L 5.09349 3L 5.09349 -3L 2.09349 -3L 2.09349 3ZM -3 0L -3 2.65854L 3 2.65854L 3 0L -3 0ZM -3 215.341L -3 220.659L 3 220.659L 3 215.341L -3 215.341ZM -3 433.341L -3 436L 3 436L 3 433.341L -3 433.341ZM 0 439L 2.0935 439L 2.0935 433L 0 433L 0 439ZM 169.573 439L 173.76 439L 173.76 433L 169.573 433L 169.573 439ZM 341.24 439L 345.427 439L 345.427 433L 341.24 433L 341.24 439ZM 512.906 439L 515 439L 515 433L 512.906 433L 512.906 439ZM 518 436L 518 433.341L 512 433.341L 512 436L 518 436ZM 518 220.659L 518 215.341L 512 215.341L 512 220.659L 518 220.659ZM 518 2.65855L 518 0L 512 0L 512 2.65855L 518 2.65855ZM 515 -3L 512.906 -3L 512.906 3L 515 3L 515 -3ZM 345.427 -3L 341.24 -3L 341.24 3L 345.427 3L 345.427 -3ZM 173.76 -3L 169.573 -3L 169.573 3L 173.76 3L 173.76 -3ZM 2.09349 -3L 0 -3L 0 3L 2.09349 3L 2.09349 -3Z"/>
</defs>
</svg>
