<svg width="24" height="24" viewBox="0 0 24 24" version="1.1" xmlns="http://www.w3.org/2000/svg" xmlns:xlink="http://www.w3.org/1999/xlink">
<title>Group</title>
<desc>Created using Figma</desc>
<g id="Canvas" transform="translate(8269 -630)">
<g id="Group">
<g id="Rectangle 2" filter="url(#filter0_f)">
<mask id="mask0_outline_ins">
<use xlink:href="#path0_fill" fill="white" transform="translate(-8265 634)"/>
</mask>
<g mask="url(#mask0_outline_ins)">
<use xlink:href="#path1_stroke_2x" transform="translate(-8265 634)" fill="#23A2F8"/>
</g>
</g>
<g id="Rectangle 2">
<mask id="mask1_outline_ins">
<use xlink:href="#path2_fill" fill="white" transform="translate(-8265 634)"/>
</mask>
<g mask="url(#mask1_outline_ins)">
<use xlink:href="#path3_stroke_2x" transform="translate(-8265 634)" fill="#23A2F8"/>
</g>
</g>
</g>
</g>
<defs>
<filter id="filter0_f" filterUnits="userSpaceOnUse" x="-8269" y="630" width="24" height="24" color-interpolation-filters="sRGB">
<feFlood flood-opacity="0" result="BackgroundImageFix"/>
<feBlend mode="normal" in="SourceGraphic" in2="BackgroundImageFix" result="shape"/>
<feGaussianBlur stdDeviation="2" result="effect1_foregroundBlur"/>
</filter>
<path id="path0_fill" d="M 0 5C 0 2.23858 2.23858 0 5 0L 11 0C 13.7614 0 16 2.23858 16 5L 16 11C 16 13.7614 13.7614 16 11 16L 5 16C 2.23858 16 0 13.7614 0 11L 0 5Z"/>
<path id="path1_stroke_2x" d="M 5 1L 11 1L 11 -1L 5 -1L 5 1ZM 15 5L 15 11L 17 11L 17 5L 15 5ZM 11 15L 5 15L 5 17L 11 17L 11 15ZM 1 11L 1 5L -1 5L -1 11L 1 11ZM 5 15C 2.79086 15 1 13.2091 1 11L -1 11C -1 14.3137 1.68629 17 5 17L 5 15ZM 15 11C 15 13.2091 13.2091 15 11 15L 11 17C 14.3137 17 17 14.3137 17 11L 15 11ZM 11 1C 13.2091 1 15 2.79086 15 5L 17 5C 17 1.68629 14.3137 -1 11 -1L 11 1ZM 5 -1C 1.68629 -1 -1 1.68629 -1 5L 1 5C 1 2.79086 2.79086 1 5 1L 5 -1Z"/>
<path id="path2_fill" d="M 0 0L 16 0L 16 16L 0 16L 0 0Z"/>
<path id="path3_stroke_2x" d="M 0 0L 0 -1L -1 -1L -1 0L 0 0ZM 16 0L 17 0L 17 -1L 16 -1L 16 0ZM 16 16L 16 17L 17 17L 17 16L 16 16ZM 0 16L -1 16L -1 17L 0 17L 0 16ZM 0 1L 16 1L 16 -1L 0 -1L 0 1ZM 15 0L 15 16L 17 16L 17 0L 15 0ZM 16 15L 0 15L 0 17L 16 17L 16 15ZM 1 16L 1 0L -1 0L -1 16L 1 16Z"/>
</defs>
</svg>
