<svg width="20" height="18" viewBox="0 0 20 18" version="1.1" xmlns="http://www.w3.org/2000/svg" xmlns:xlink="http://www.w3.org/1999/xlink">
<title>Vector</title>
<desc>Created using Figma</desc>
<g id="Canvas" transform="translate(7422 -809)">
<g id="Vector">
<use xlink:href="#path0_fill" transform="translate(-7422 809)" fill="#E1E8EE"/>
</g>
</g>
<defs>
<path id="path0_fill" d="M 16.1006 17.8895C 15.9444 17.8895 15.7892 17.8433 15.6561 17.753L 10.6273 14.3419L 7.93014 16.2826C 7.71861 16.4347 7.44595 16.4731 7.20033 16.3852C 6.95501 16.2972 6.76871 16.094 6.70221 15.842L 5.34792 10.7097L 0.508905 8.8594C 0.20427 8.74287 0.0022351 8.45143 1.84203e-05 8.12526C -0.00219826 7.79909 0.195825 7.5049 0.498983 7.38425L 18.8987 0.0628723C 18.9822 0.0274054 19.0705 0.00692738 19.1596 0.00143845C 19.1915 -0.000461559 19.2235 -0.000461502 19.2553 0.00133295C 19.4398 0.0123108 19.621 0.0874668 19.7625 0.226168C 19.7771 0.240523 19.7911 0.255196 19.8043 0.270501C 19.9214 0.404347 19.9858 0.567536 19.998 0.733788C 20.0009 0.775588 20.0007 0.817916 19.997 0.860244C 19.9945 0.890433 19.9902 0.920516 19.984 0.950389L 16.8782 17.2461C 16.8283 17.5078 16.6501 17.727 16.404 17.829C 16.3063 17.8696 16.2032 17.8895 16.1006 17.8895ZM 11.0689 12.7281L 15.5483 15.7666L 17.9649 3.08674L 9.23682 11.4854L 11.0477 12.7139C 11.055 12.7184 11.062 12.7233 11.0689 12.7281ZM 7.33987 12.0525L 7.93964 14.3251L 9.23186 13.3953L 7.53979 12.2474C 7.46116 12.1942 7.39381 12.1279 7.33987 12.0525ZM 2.96995 8.10509L 6.29265 9.37546C 6.53068 9.46645 6.71033 9.66659 6.77536 9.91296L 7.19674 11.5099C 7.21605 11.3257 7.29955 11.1524 7.43519 11.0218L 15.7519 3.01919L 2.96995 8.10509Z"/>
</defs>
</svg>
