<svg width="317" height="54" viewBox="0 0 317 54" version="1.1" xmlns="http://www.w3.org/2000/svg" xmlns:xlink="http://www.w3.org/1999/xlink">
<title>&#208;&#160;&#208;&#181;&#209;&#129;&#209;&#131;&#209;&#128;&#209;&#129; 1 (2)</title>
<desc>Created using Figma</desc>
<g id="Canvas" transform="translate(8942 56)">
<g id="&#208;&#160;&#208;&#181;&#209;&#129;&#209;&#131;&#209;&#128;&#209;&#129; 1 (2)">
<g id="&#208;&#161;&#208;&#187;&#208;&#190;&#208;&#185; 2">
<g id="&#208;&#161;&#208;&#187;&#208;&#190;&#208;&#185; 1">
<g id="&#208;&#161;&#208;&#187;&#208;&#190;&#208;&#185; 2">
<g id="&#208;&#161;&#208;&#187;&#208;&#190;&#208;&#185; 1-2">
<g id="uct &#208;&#186;&#208;&#190;&#208;&#191;&#209;&#150;&#209;&#143; &#208;&#146;&#209;&#150;&#208;&#180;&#209;&#129;&#209;&#150;&#209;&#135;&#208;&#189;&#208;&#184;&#208;&#185; &#208;&#186;&#208;&#190;&#208;&#189;&#209;&#130;&#209;&#131;&#209;&#128;">
<g id="Vector">
<use xlink:href="#path0_fill" transform="translate(-8942 -48.8434)" fill="#23A2F8"/>
</g>
</g>
<g id="Vector">
</g>
<g id="Vector">
<use xlink:href="#path1_fill" transform="translate(-8802.1 -48.8412)" fill="#23A2F8"/>
</g>
<g id="Vector">
<use xlink:href="#path2_fill" transform="translate(-8789.83 -48.607)" fill="#23A2F8"/>
</g>
<g id="Vector">
<use xlink:href="#path3_fill" transform="translate(-8768.01 -48.8437)" fill="#23A2F8"/>
</g>
<g id="Vector">
<use xlink:href="#path4_fill" transform="translate(-8750.75 -48.607)" fill="#23A2F8"/>
</g>
<g id="Vector">
<use xlink:href="#path5_fill" transform="translate(-8735.27 -48.607)" fill="#23A2F8"/>
</g>
<g id="Vector">
<use xlink:href="#path6_fill" transform="translate(-8722.14 -48.6081)" fill="#23A2F8"/>
</g>
<g id="Vector">
<use xlink:href="#path7_fill" transform="translate(-8789.23 -19.7241)" fill="#23A2F8"/>
</g>
<g id="Vector">
<use xlink:href="#path8_fill" transform="translate(-8773.36 -19.727)" fill="#23A2F8"/>
</g>
<g id="Vector">
<use xlink:href="#path9_fill" transform="translate(-8756.09 -19.4882)" fill="#23A2F8"/>
</g>
<g id="Vector">
<use xlink:href="#path10_fill" transform="translate(-8740.61 -19.4899)" fill="#23A2F8"/>
</g>
<g id="Vector">
<use xlink:href="#path11_fill" transform="translate(-8725.49 -19.7357)" fill="#23A2F8"/>
</g>
<g id="Vector">
<use xlink:href="#path12_fill" transform="translate(-8708.23 -19.4882)" fill="#23A2F8"/>
</g>
<g id="Vector">
<use xlink:href="#path13_fill" transform="translate(-8694.21 -19.4904)" fill="#23A2F8"/>
</g>
<g id="Vector">
<use xlink:href="#path14_fill" transform="translate(-8678.91 -19.4882)" fill="#23A2F8"/>
</g>
<g id="Vector">
<use xlink:href="#path15_fill" transform="translate(-8662.62 -19.4882)" fill="#23A2F8"/>
</g>
<g id="Vector">
<use xlink:href="#path16_fill" transform="translate(-8656.3 -19.727)" fill="#23A2F8"/>
</g>
<g id="Vector">
<use xlink:href="#path17_fill" transform="translate(-8639.03 -19.4882)" fill="#23A2F8"/>
</g>
</g>
</g>
</g>
</g>
</g>
</g>
<defs>
<path id="path0_fill" d="M 37.4314 0.902169L 32.4328 0.902169C 32.2129 0.894052 31.9935 0.929432 31.7872 1.00628C 31.5809 1.08314 31.3918 1.19995 31.2307 1.35003C 31.0696 1.50011 30.9397 1.68052 30.8484 1.88091C 30.7572 2.0813 30.7063 2.29774 30.6987 2.51783C 30.6987 2.53663 30.6987 2.55542 30.6987 2.57422C 30.6987 11.5178 30.7616 20.2684 30.7616 29.212C 30.7616 34.8745 26.4003 39.5089 21.0073 39.5089C 15.6858 39.5089 11.3896 34.8745 11.3896 29.212L 11.3896 2.57422C 11.3899 2.35446 11.3468 2.1368 11.263 1.93369C 11.1791 1.73057 11.0561 1.54599 10.9009 1.3905C 10.7456 1.235 10.5613 1.11165 10.3584 1.02748C 10.1555 0.94332 9.938 0.9 9.71835 0.9L 1.14325 0.9C -0.0749542 0.9 -0.523651 2.18602 0.82244 2.95807C 2.10567 3.73229 3.00957 5.01831 3.00957 7.2694L 3.00957 29.019C 3.00957 38.8019 11.0948 46.8434 21.0268 46.8434C 31.0282 46.8434 39.172 38.8019 39.172 29.019L 39.172 2.57422C 39.1714 2.13094 38.9951 1.70598 38.6818 1.39253C 38.3685 1.07909 37.9438 0.902742 37.5007 0.902169L 37.4314 0.902169ZM 91.0908 34.5535L 87.2432 32.1072C 86.283 31.5282 85.3206 31.9793 84.744 32.7578C 82.1688 36.1692 77.114 39.5133 70.765 39.5133C 61.9818 39.5133 54.8655 32.3566 54.8655 23.426C 54.8655 14.4954 61.9818 7.34313 70.765 7.34313C 76.4008 7.34313 81.4102 9.85229 84.4904 14.1636C 85.1927 15.1937 86.0272 15.3867 87.1219 14.7427L 90.9585 12.4222C 91.921 11.8431 91.9838 10.8781 91.2772 9.91301C 86.7317 3.92747 79.2946 0 70.7672 0C 57.4948 0 46.5332 10.4877 46.5332 23.4217C 46.5332 36.3557 57.4948 46.7783 70.7672 46.7783C 79.1667 46.7783 86.8617 43.239 91.5438 36.9954C 92.1247 36.0347 91.9253 35.1325 91.0908 34.5535ZM 126.423 0.902169L 95.5777 0.902169C 95.1444 0.91354 94.7331 1.09555 94.4331 1.40863C 94.1332 1.72172 93.9689 2.14059 93.9759 2.57422L 93.9759 6.62964C 93.9727 6.83829 94.0107 7.04552 94.0877 7.23947C 94.1647 7.43342 94.2791 7.61029 94.4244 7.75995C 94.5698 7.9096 94.7432 8.02912 94.9348 8.11166C 95.1264 8.1942 95.3323 8.23814 95.5409 8.24096L 105.195 8.24096C 105.415 8.24125 105.632 8.28478 105.835 8.36907C 106.037 8.45336 106.222 8.57676 106.377 8.73223C 106.532 8.88769 106.654 9.07218 106.738 9.27515C 106.822 9.47812 106.865 9.6956 106.865 9.91518C 106.865 9.93398 106.865 9.95277 106.865 9.97157L 106.865 16.9504L 106.834 17.5771L 106.834 44.241C 106.834 44.685 107.01 45.1108 107.324 45.4248C 107.638 45.7388 108.064 45.9152 108.508 45.9152L 117.091 45.9152C 118.31 45.9152 118.758 44.627 117.41 43.8549C 116.129 43.0807 115.232 41.786 115.232 39.5393L 115.232 17.7831L 115.266 16.7313L 115.266 9.9759C 115.266 9.00867 116.034 8.24096 116.868 8.24096L 126.421 8.24096C 127.381 8.24096 128.088 7.59036 128.088 6.63181L 128.088 2.57422C 128.102 2.14487 127.945 1.72753 127.651 1.41397C 127.358 1.10041 126.952 0.916316 126.523 0.902169L 126.423 0.902169Z"/>
<path id="path1_fill" d="M 1.12499 0L -5.82124e-06 0L -5.82124e-06 46.8412L 1.12499 46.8412L 1.12499 0Z"/>
<path id="path2_fill" d="M 14.5556 12.2747L 16.8771 3.30914e-08L 20.419 3.30914e-08L 16.5931 17.2518L 13.0057 17.2518L 10.2095 5.71229L 7.40242 17.2518L 3.82585 17.2518L 0 3.30914e-08L 3.5419 3.30914e-08L 5.87424 12.2508L 8.716 3.30914e-08L 11.7247 3.30914e-08L 14.5556 12.2747Z"/>
<path id="path3_fill" d="M 14.6771 9.25402C 14.7107 10.7914 14.4035 12.3171 13.7775 13.7215C 13.2298 14.9414 12.3339 15.9721 11.2024 16.6839C 10.0406 17.3642 8.71928 17.724 7.37315 17.7267C 6.02703 17.7294 4.70429 17.3748 3.53984 16.6991C 2.40311 15.9917 1.49873 14.9662 0.938697 13.7497C 0.299959 12.3712 -0.0201066 10.8665 0.00228425 9.34728L 0.00228425 8.49499C -0.0301596 6.95035 0.283118 5.418 0.919183 4.01017C 1.47478 2.78451 2.37964 1.75021 3.52033 1.03691C 4.68306 0.357842 6.00525 1.163e-07 7.3516 1.163e-07C 8.69795 1.163e-07 10.0201 0.357842 11.1829 1.03691C 12.3235 1.7503 13.2283 2.78458 13.784 4.01017C 14.419 5.41375 14.7323 6.94163 14.7009 8.48198L 14.6771 9.25402ZM 11.0767 8.47113C 11.0767 6.66246 10.7529 5.28896 10.1056 4.35065C 9.78777 3.91596 9.37222 3.56217 8.8925 3.31787C 8.41278 3.07357 7.88234 2.94562 7.34405 2.94435C 6.80576 2.94309 6.27472 3.06854 5.79385 3.31058C 5.31299 3.55262 4.89579 3.90445 4.57597 4.33764C 3.92857 5.26583 3.60126 6.62631 3.59403 8.41908L 3.59403 9.26053C 3.59403 11.0215 3.91772 12.3878 4.56512 13.3593C 4.8624 13.8259 5.277 14.206 5.76736 14.4618C 6.25773 14.7176 6.80667 14.84 7.35918 14.8167C 8.55137 14.8167 9.46683 14.349 10.1056 13.4135C 10.7443 12.4781 11.068 11.1133 11.0767 9.31908L 11.0767 8.47113Z"/>
<path id="path4_fill" d="M 6.38364 10.9366L 3.55273 10.9366L 3.55273 17.2518L -4.76283e-06 17.2518L -4.76283e-06 3.30914e-08L 6.40748 3.30914e-08C 8.44504 3.30914e-08 10.0158 0.453976 11.1199 1.36193C 12.2239 2.26988 12.7767 3.55374 12.7781 5.21349C 12.7781 6.39036 12.5238 7.37205 12.0151 8.15855C 11.4407 8.99839 10.6328 9.65134 9.69142 10.0366L 13.4219 17.087L 13.4219 17.2518L 9.61556 17.2518L 6.38364 10.9366ZM 3.55273 8.05663L 6.41832 8.05663C 7.30994 8.05663 8.00069 7.82964 8.49057 7.37566C 8.98045 6.92169 9.22538 6.29566 9.22538 5.49759C 9.22538 4.68361 8.99418 4.04386 8.53175 3.57831C 8.06933 3.11277 7.36052 2.88 6.40532 2.88L 3.55273 2.88L 3.55273 8.05663Z"/>
<path id="path5_fill" d="M 3.55273 14.3957L 11.096 14.3957L 11.096 17.2518L 2.64602e-06 17.2518L 2.64602e-06 3.30914e-08L 3.55273 3.30914e-08L 3.55273 14.3957Z"/>
<path id="path6_fill" d="M -4.76283e-06 17.2529L -4.76283e-06 0.00110554L 5.30634 0.00110554C 6.72929 -0.0224719 8.1331 0.331457 9.37496 1.02689C 10.5691 1.70896 11.5414 2.72091 12.1755 3.94159C 12.8619 5.26718 13.2075 6.74289 13.1813 8.23556L 13.1813 9.0293C 13.2089 10.5145 12.8694 11.9836 12.1929 13.3059C 11.5633 14.5235 10.5943 15.5322 9.40314 16.2098C 8.1638 16.9075 6.76301 17.2672 5.34102 17.2529L -4.76283e-06 17.2529ZM 3.55274 2.88111L 3.55274 14.3968L 5.26948 14.3968C 6.65964 14.3968 7.72179 13.9428 8.45589 13.0348C 9.18999 12.1269 9.56498 10.8257 9.58087 9.13123L 9.58087 8.22255C 9.58087 6.46882 9.2196 5.14014 8.49706 4.23653C 7.77452 3.33291 6.7124 2.88038 5.31067 2.87894L 3.55274 2.88111Z"/>
<path id="path7_fill" d="M 14.0618 11.7407C 13.9274 13.5971 13.2424 15.058 12.0069 16.1236C 10.7713 17.1891 9.14272 17.7226 7.12105 17.7241C 4.91008 17.7241 3.17093 16.9795 1.90359 15.4903C 0.63626 14.0012 0.00260158 11.9576 0.00260158 9.35948L 0.00260158 8.30551C -0.0311561 6.79878 0.26477 5.30288 0.869649 3.92261C 1.3963 2.72554 2.26803 1.71293 3.37325 1.01442C 4.51305 0.324053 5.82581 -0.0272409 7.1579 0.00164843C 9.14777 0.00164843 10.7504 0.535144 11.9657 1.60213C 13.181 2.66912 13.8833 4.16623 14.0726 6.09345L 10.5329 6.09345C 10.4462 4.9802 10.1362 4.17273 9.60298 3.67105C 9.06975 3.16936 8.25834 2.91852 7.16875 2.91852C 5.98523 2.91852 5.09867 3.34285 4.50908 4.19153C 3.91948 5.0402 3.61819 6.35587 3.60518 8.13852L 3.60518 9.43972C 3.60518 11.3033 3.88769 12.666 4.45272 13.5277C 5.01774 14.3894 5.90791 14.8231 7.12322 14.8289C 8.22004 14.8289 9.03939 14.578 9.5813 14.0763C 10.1232 13.5747 10.4332 12.7983 10.5112 11.7472L 14.0618 11.7407Z"/>
<path id="path8_fill" d="M 14.6836 9.25402C 14.7172 10.7914 14.41 12.3171 13.784 13.7215C 13.2364 14.9414 12.3404 15.9721 11.2089 16.6839C 10.046 17.3648 8.72322 17.7245 7.37582 17.7264C 6.02842 17.7283 4.70468 17.3723 3.53984 16.6947C 2.40384 15.9884 1.49955 14.9645 0.938701 13.7497C 0.299963 12.3712 -0.0201029 10.8665 0.00228796 9.34728L 0.00228796 8.49499C -0.0301559 6.95034 0.283121 5.418 0.919187 4.01017C 1.47478 2.78451 2.37964 1.7502 3.52033 1.03691C 4.68307 0.357841 6.00525 -1.07499e-06 7.35159 -1.07499e-06C 8.69794 -1.07499e-06 10.0201 0.357841 11.1829 1.03691C 12.3235 1.7503 13.2283 2.78458 13.784 4.01017C 14.419 5.41375 14.7323 6.94162 14.7009 8.48197L 14.6836 9.25402ZM 11.0832 8.47113C 11.0832 6.66246 10.7595 5.28896 10.1121 4.35065C 9.79462 3.91571 9.37935 3.56159 8.89982 3.31691C 8.42029 3.07224 7.88994 2.94387 7.35165 2.94218C 6.81336 2.94049 6.28223 3.06553 5.80117 3.30719C 5.32011 3.54885 4.90263 3.90036 4.58247 4.3333C 3.93507 5.26149 3.60776 6.62197 3.60053 8.41475L 3.60053 9.25619C 3.60053 11.0172 3.92424 12.3834 4.57163 13.355C 4.86929 13.8222 5.28456 14.2028 5.77576 14.4586C 6.26695 14.7144 6.81679 14.8364 7.37002 14.8123C 8.56221 14.8123 9.47767 14.3446 10.1164 13.4092C 10.7551 12.4738 11.0788 11.109 11.0875 9.31475L 11.0832 8.47113Z"/>
<path id="path9_fill" d="M 6.38363 10.9345L 3.54406 10.9345L 3.54406 17.2496L 5.29204e-06 17.2496L 5.29204e-06 1.32365e-07L 6.40749 1.32365e-07C 8.44505 1.32365e-07 10.0158 0.453976 11.1199 1.36193C 12.2239 2.26988 12.7767 3.55373 12.7781 5.21349C 12.7781 6.39036 12.5238 7.37205 12.0151 8.15855C 11.443 8.99707 10.6383 9.64989 9.7001 10.0366L 13.4306 17.087L 13.4306 17.2518L 9.61339 17.2518L 6.38363 10.9345ZM 3.54406 8.05663L 6.40964 8.05663C 7.30126 8.05663 7.99202 7.82964 8.4819 7.37566C 8.97178 6.92169 9.21671 6.29566 9.21671 5.49759C 9.21671 4.68362 8.9855 4.04386 8.52307 3.57831C 8.06065 3.11277 7.35184 2.88 6.39664 2.88L 3.54406 2.88L 3.54406 8.05663Z"/>
<path id="path10_fill" d="M 3.55273 11.1747L 3.55273 17.247L -5.29204e-07 17.247L -5.29204e-07 0.00170579L 6.71962 0.00170579C 7.89748 -0.0229641 9.06557 0.220258 10.1358 0.713031C 11.0781 1.14919 11.8696 1.85573 12.4096 2.74291C 12.946 3.6393 13.2229 4.66716 13.2095 5.71183C 13.2095 7.40195 12.6314 8.73496 11.4754 9.71086C 10.3193 10.6868 8.71888 11.1747 6.67409 11.1747L 3.55273 11.1747ZM 3.55273 8.29472L 6.72613 8.29472C 7.66543 8.29472 8.38218 8.07351 8.8764 7.6311C 9.37062 7.18869 9.617 6.55689 9.61555 5.73568C 9.63208 5.3618 9.57473 4.98833 9.44678 4.63667C 9.31882 4.285 9.12279 3.96204 8.86989 3.68629C 8.37278 3.16436 7.68565 2.89544 6.80848 2.87954L 3.55706 2.87954L 3.55273 8.29472Z"/>
<path id="path11_fill" d="M 14.6836 9.2627C 14.7172 10.8 14.41 12.3258 13.784 13.7302C 13.2364 14.9501 12.3404 15.9807 11.2089 16.6926C 10.046 17.3734 8.72323 17.7332 7.37583 17.7351C 6.02844 17.737 4.70467 17.381 3.53983 16.7034C 2.40383 15.9971 1.49954 14.9732 0.938691 13.7584C 0.299953 12.3799 -0.0200992 10.8752 0.00229166 9.35595L 0.00229166 8.50366C -0.0301522 6.95902 0.283125 5.42668 0.91919 4.01884C 1.46928 2.79204 2.36879 1.7548 3.50516 1.03691C 4.6679 0.357842 5.99009 3.81031e-07 7.33643 3.81031e-07C 8.68278 3.81031e-07 10.0049 0.357842 11.1677 1.03691C 12.3083 1.75031 13.2131 2.78458 13.7688 4.01017C 14.4038 5.41375 14.7171 6.94163 14.6857 8.48198L 14.6836 9.2627ZM 11.0918 8.48198C 11.0918 6.6733 10.7681 5.29981 10.1207 4.36149C 9.80329 3.92655 9.38802 3.57244 8.90849 3.32776C 8.42896 3.08308 7.89862 2.95471 7.36033 2.95302C 6.82204 2.95133 6.2909 3.07637 5.80984 3.31804C 5.32878 3.5597 4.9113 3.9112 4.59114 4.34414C 3.94374 5.27234 3.61642 6.63282 3.6092 8.42559L 3.6092 9.26703C 3.6092 11.028 3.93291 12.3943 4.5803 13.3658C 4.87758 13.8324 5.29216 14.2126 5.78253 14.4683C 6.2729 14.7241 6.82183 14.8465 7.37435 14.8232C 8.56654 14.8232 9.48201 14.3555 10.1207 13.42C 10.7595 12.4846 11.0832 11.1198 11.0918 9.32559L 11.0918 8.48198Z"/>
<path id="path12_fill" d="M 6.38365 10.9345L 3.55273 10.9345L 3.55273 17.2496L -4.23363e-06 17.2496L -4.23363e-06 1.32365e-07L 6.39881 1.32365e-07C 8.43637 1.32365e-07 10.0072 0.453976 11.1112 1.36193C 12.2153 2.26988 12.768 3.55373 12.7694 5.21349C 12.7694 6.39036 12.5151 7.37205 12.0064 8.15855C 11.4344 8.99707 10.6296 9.64989 9.69141 10.0366L 13.4219 17.087L 13.4219 17.2518L 9.60907 17.2518L 6.38365 10.9345ZM 3.55273 8.05446L 6.41831 8.05446C 7.30993 8.05446 8.00069 7.82747 8.49057 7.37349C 8.98045 6.91952 9.22539 6.29349 9.22539 5.49542C 9.22539 4.68145 8.99417 4.04169 8.53174 3.57615C 8.06932 3.1106 7.36052 2.87783 6.40532 2.87783L 3.55056 2.87783L 3.55273 8.05446Z"/>
<path id="path13_fill" d="M 11.1914 13.6973L 4.96169 13.6973L 3.77815 17.2518L 7.40885e-06 17.2518L 6.41832 1.32365e-06L 9.7196 1.32365e-06L 16.1748 17.2518L 12.3966 17.2518L 11.1914 13.6973ZM 5.92193 10.8173L 10.2333 10.8173L 8.06571 4.35904L 5.92193 10.8173Z"/>
<path id="path14_fill" d="M 14.0375 2.87783L 8.75501 2.87783L 8.75501 17.2496L 5.20228 17.2496L 5.20228 2.87783L -4.23363e-06 2.87783L -4.23363e-06 1.32365e-07L 14.0462 1.32365e-07L 14.0375 2.87783Z"/>
<path id="path15_fill" d="M 3.55273 17.2496L -1.05841e-06 17.2496L -1.05841e-06 1.32365e-07L 3.55273 1.32365e-07L 3.55273 17.2496Z"/>
<path id="path16_fill" d="M 14.6836 9.25402C 14.7172 10.7914 14.41 12.3171 13.784 13.7215C 13.2364 14.9414 12.3404 15.9721 11.2089 16.6839C 10.046 17.3648 8.72323 17.7245 7.37583 17.7264C 6.02843 17.7283 4.70468 17.3723 3.53984 16.6947C 2.40383 15.9884 1.49955 14.9645 0.938698 13.7497C 0.29996 12.3712 -0.0200923 10.8665 0.00229854 9.34728L 0.00229854 8.49499C -0.0301453 6.95034 0.283132 5.418 0.919197 4.01017C 1.47479 2.78451 2.37965 1.7502 3.52034 1.03691C 4.68308 0.357841 6.00524 -1.07499e-06 7.35159 -1.07499e-06C 8.69794 -1.07499e-06 10.0201 0.357841 11.1829 1.03691C 12.3235 1.7503 13.2283 2.78458 13.784 4.01017C 14.419 5.41375 14.7323 6.94162 14.7009 8.48197L 14.6836 9.25402ZM 11.0832 8.47113C 11.0832 6.66246 10.7594 5.28896 10.112 4.35065C 9.79461 3.91571 9.37933 3.56159 8.8998 3.31691C 8.42027 3.07224 7.88993 2.94387 7.35164 2.94218C 6.81335 2.94049 6.28221 3.06553 5.80116 3.30719C 5.3201 3.54885 4.90262 3.90036 4.58245 4.3333C 3.93506 5.26149 3.60777 6.62197 3.60054 8.41475L 3.60054 9.25619C 3.60054 11.0172 3.92423 12.3834 4.57163 13.355C 4.86891 13.8215 5.28351 14.2017 5.77388 14.4575C 6.26424 14.7133 6.81318 14.8356 7.36569 14.8123C 8.55788 14.8123 9.47332 14.3446 10.112 13.4092C 10.7508 12.4738 11.0745 11.109 11.0832 9.31475L 11.0832 8.47113Z"/>
<path id="path17_fill" d="M 14.0223 17.2496L 10.4696 17.2496L 3.55272 5.89879L 3.55272 17.2496L -1.05841e-05 17.2496L -1.05841e-05 1.32365e-07L 3.55272 1.32365e-07L 10.4891 11.3747L 10.4891 1.32365e-07L 14.031 1.32365e-07L 14.0223 17.2496Z"/>
</defs>
</svg>
